<?xml version="1.0" standalone="no"?>
<!DOCTYPE svg PUBLIC "-//W3C//DTD SVG 20010904//EN"
 "http://www.w3.org/TR/2001/REC-SVG-20010904/DTD/svg10.dtd">
<svg version="1.0" xmlns="http://www.w3.org/2000/svg"
 width="512.000000pt" height="512.000000pt" viewBox="0 0 512.000000 512.000000"
 preserveAspectRatio="xMidYMid meet">
<metadata>
Created by potrace 1.16, written by Peter Selinger 2001-2019
</metadata>
<g transform="translate(0.000000,512.000000) scale(0.100000,-0.100000)"
fill="#000000" stroke="none">
<path d="M2411 5101 c-120 -45 -207 -124 -264 -240 -31 -64 -32 -70 -37 -235
l-5 -169 -65 -22 c-463 -157 -842 -562 -977 -1045 -45 -162 -53 -246 -53 -555
-1 -484 -18 -680 -80 -925 -84 -334 -255 -667 -473 -925 -154 -181 -147 -170
-147 -233 0 -64 19 -102 66 -133 28 -18 60 -19 735 -19 l707 0 26 -82 c37
-120 88 -200 191 -303 103 -104 203 -161 339 -195 107 -27 265 -27 372 0 136
34 236 91 339 195 103 103 154 183 191 302 l26 83 707 0 c675 0 707 1 735 19
47 31 66 69 66 133 0 63 7 51 -148 235 -227 267 -408 632 -486 978 -48 210
-56 315 -62 740 -5 430 -11 506 -51 659 -74 285 -209 513 -430 727 -160 155
-355 277 -548 343 l-70 24 -5 169 c-5 166 -6 169 -39 238 -45 92 -124 171
-216 215 -65 32 -79 35 -180 37 -90 3 -120 0 -164 -16z m221 -308 c52 -31 70
-74 76 -179 l5 -94 -153 0 -153 0 5 94 c6 104 22 142 74 177 37 24 106 25 146
2z m112 -594 c443 -59 850 -399 995 -834 56 -169 62 -229 71 -725 9 -538 21
-632 117 -950 72 -237 224 -545 365 -737 l39 -53 -1771 0 -1771 0 39 52 c141
193 293 501 365 738 96 318 108 412 117 950 6 351 12 475 25 545 88 483 450
871 924 991 151 39 309 46 485 23z m205 -3659 c-41 -77 -122 -153 -206 -193
-64 -30 -74 -32 -183 -32 -108 0 -119 2 -180 31 -85 40 -168 118 -209 193
l-32 61 421 0 421 0 -32 -60z"/>
<path d="M1008 4592 c-67 -31 -266 -269 -379 -454 -199 -325 -319 -743 -319
-1106 0 -129 9 -155 66 -193 39 -26 126 -26 168 0 57 36 67 66 76 235 26 457
205 882 508 1207 80 85 102 124 102 174 0 114 -117 186 -222 137z"/>
<path d="M3968 4589 c-68 -35 -97 -132 -62 -202 10 -18 48 -65 86 -106 303
-325 480 -744 507 -1204 11 -172 20 -203 77 -238 42 -26 129 -26 168 0 57 38
66 64 66 193 0 363 -120 781 -319 1106 -113 185 -312 423 -379 454 -48 23 -98
22 -144 -3z"/>
</g>
</svg>
