<?xml version="1.0" standalone="no"?>
<!DOCTYPE svg PUBLIC "-//W3C//DTD SVG 20010904//EN"
 "http://www.w3.org/TR/2001/REC-SVG-20010904/DTD/svg10.dtd">
<svg version="1.0" xmlns="http://www.w3.org/2000/svg"
 width="512.000000pt" height="512.000000pt" viewBox="0 0 512.000000 512.000000"
 preserveAspectRatio="xMidYMid meet">
<metadata>
Created by potrace 1.16, written by Peter Selinger 2001-2019
</metadata>
<g transform="translate(0.000000,512.000000) scale(0.100000,-0.100000)"
fill="#000000" stroke="none">
<path d="M2235 5105 c-462 -60 -885 -237 -1255 -523 -117 -91 -316 -287 -413
-407 -276 -342 -459 -746 -537 -1186 -28 -156 -39 -531 -21 -702 43 -399 182
-790 398 -1122 98 -150 184 -257 318 -394 419 -430 948 -690 1550 -760 134
-16 460 -13 605 4 748 93 1416 512 1833 1150 210 321 344 690 392 1075 20 162
20 477 0 640 -92 742 -510 1412 -1140 1826 -329 216 -695 350 -1085 399 -152
18 -501 18 -645 0z m423 -1077 c102 -48 149 -187 97 -287 -20 -40 -74 -89
-112 -103 l-33 -12 0 -113 0 -113 -50 0 -50 0 0 113 -1 112 -49 23 c-81 38
-133 139 -115 224 10 49 51 114 87 139 39 29 113 49 153 42 17 -3 50 -14 73
-25z m1071 -751 c13 -6 34 -25 45 -40 21 -28 21 -35 24 -805 2 -427 0 -797 -3
-821 -5 -32 -16 -54 -40 -78 l-33 -33 -583 0 -584 0 -370 -214 -370 -214 -3
197 c-2 186 -3 197 -23 213 -19 16 -45 18 -206 18 l-185 0 -33 33 c-24 24 -35
46 -40 78 -3 24 -5 394 -3 821 3 770 3 777 24 805 11 15 32 34 45 40 19 10
280 13 1169 13 889 0 1150 -3 1169 -13z m-2519 -888 l0 -592 -50 5 c-97 10
-90 -37 -90 591 0 630 -6 587 87 587 l53 0 0 -591z m2822 574 c17 -15 18 -46
18 -568 0 -630 7 -583 -90 -593 l-50 -5 0 592 0 591 52 0 c34 0 58 -6 70 -17z"/>
<path d="M1889 2856 c-123 -44 -190 -138 -188 -265 2 -156 115 -265 274 -265
60 0 79 4 125 30 62 35 114 96 130 152 19 69 13 153 -16 210 -59 119 -205 181
-325 138z m151 -118 c66 -34 93 -79 88 -150 -5 -71 -39 -119 -103 -143 -53
-21 -94 -15 -146 19 -101 67 -87 226 25 277 54 24 82 24 136 -3z"/>
<path d="M3080 2861 c-132 -43 -199 -134 -200 -267 0 -89 34 -162 99 -211 150
-115 363 -54 428 120 29 80 8 202 -46 268 -60 73 -199 117 -281 90z m136 -120
c112 -51 126 -210 25 -277 -52 -34 -93 -40 -146 -19 -64 24 -98 72 -103 143
-5 71 22 116 88 150 54 27 82 27 136 3z"/>
<path d="M2182 2018 c-7 -7 -12 -25 -12 -40 0 -37 58 -75 170 -112 153 -50
325 -45 480 15 98 37 130 62 130 98 0 59 -42 66 -136 20 -161 -76 -347 -76
-508 0 -68 33 -105 38 -124 19z"/>
</g>
</svg>
